<svg xmlns="http://www.w3.org/2000/svg" xmlns:xlink="http://www.w3.org/1999/xlink" viewBox="0 0 750.73 262.77"><defs><style>.cls-1{fill:url(#linear-gradient);}</style><linearGradient id="linear-gradient" y1="131.38" x2="750.73" y2="131.38" gradientUnits="userSpaceOnUse"><stop offset="0" stop-color="#ffdf84"/><stop offset="0.99" stop-color="#ff2dcd"/></linearGradient></defs><g id="Layer_2" data-name="Layer 2"><g id="Layer_1-2" data-name="Layer 1"><path class="cls-1" d="M750.66,260.62c-1.13-33.44-56.64-77.41-77.94-91.53s-45-23.27-67.91-32.16c-18.23-7.07-37.08-14.37-54.42-24-26.59-14.84-51.33-34-75.26-52.49-11.68-9-23.76-18.37-35.87-27.07C408,10.9,378.05,0,347.63,0a128.47,128.47,0,0,0-33.71,4.59h0c-18.92,5.16-40.25,12.14-55,24.73-8.44,7.22-15.37,16.38-22.08,25.24-5.45,7.2-11.08,14.65-17.46,21-24.65,24.34-56.55,39.2-87.38,53.57-40.39,18.82-82.15,38.28-107.25,79.2-.78,1.27-3.27,7-7.61,17-5.4,12.5-12.13,28.05-15.53,34.4L0,262.77H750.73Z"/></g></g></svg>