<svg width="266" height="495" viewBox="0 0 266 495" fill="none" xmlns="http://www.w3.org/2000/svg">
<path d="M264.486 93.9377C263.818 75.2393 236.438 61.8832 221.413 57.2086C210.394 53.5357 199.042 53.2018 187.689 54.8713C182.68 55.5391 178.006 56.5408 173.331 58.2103C170.994 59.212 162.98 64.8883 160.977 63.8866C171.996 49.195 191.028 43.1848 208.725 43.8526C223.75 44.5204 243.116 59.8798 254.803 43.8526C265.488 29.1609 254.803 13.4676 240.445 6.78956C223.416 -0.890166 202.714 -1.22407 184.684 3.11665C175.668 5.12005 166.987 8.45906 158.64 12.4659C154.633 14.4693 150.96 16.4727 147.287 18.81C143.614 21.1473 140.275 26.1558 136.602 27.8253C133.263 29.4948 135.266 30.1626 131.927 27.4914C128.922 25.1541 126.919 21.4812 123.914 19.1439C116.902 12.7998 109.222 8.79296 100.207 5.78785C81.5084 -0.890166 62.8099 -1.22407 43.1097 2.78274C28.0842 5.78785 8.38405 13.1337 11.7231 32.166C16.7316 57.2086 41.7741 41.1814 57.1336 40.5136C67.1506 39.8458 77.1677 41.5153 86.5169 46.1899C89.1881 47.5255 108.22 58.5442 105.883 62.2171C104.214 63.2188 93.8627 57.2086 91.8593 56.5408C85.1813 54.5374 78.1693 53.2018 70.8235 53.2018C57.4675 53.2018 43.4436 56.2069 31.4232 62.2171C14.7282 70.8986 -18.328 105.624 13.3926 117.645C19.4028 119.982 26.7486 120.316 32.7588 118.98C39.1029 117.645 42.4419 113.638 47.1166 109.631C57.4675 100.95 67.8184 95.2733 81.5084 96.6089C88.5203 97.2767 99.2051 100.95 103.88 107.294C105.549 94.9394 118.237 85.2563 134.265 85.2563C151.294 85.2563 164.984 95.9411 165.318 109.297C165.651 108.963 166.319 108.629 166.653 108.295C172.329 103.955 179.341 100.616 186.353 99.614C200.043 97.9445 214.067 102.953 224.418 111.968C233.099 119.648 246.455 125.992 257.14 117.645C265.154 112.302 266.823 102.285 264.486 93.9377Z" fill="#5B01ED"/>
<path d="M206.054 455.885C204.385 450.543 202.047 446.202 199.71 442.195C195.369 433.848 191.363 426.168 190.361 409.807C189.359 393.446 192.698 385.098 196.037 376.417C199.376 367.736 203.049 358.72 202.048 341.691C201.046 324.328 196.705 315.981 192.364 307.633C188.024 299.286 184.017 291.606 183.015 275.245C182.013 258.884 185.352 250.536 188.691 241.855C192.03 233.173 195.703 224.158 194.702 207.129C193.7 189.766 189.359 181.419 185.019 173.071C181.68 167.061 178.674 161.051 177.005 152.035L175.669 140.683L175.335 121.317C175.335 99.9469 157.973 82.918 136.937 82.918C115.567 82.918 98.5382 100.281 98.5382 121.317L97.5365 140.683C96.5348 157.044 92.528 165.058 88.1873 173.071C83.8466 181.419 79.5059 189.766 78.5041 207.129C77.5024 224.492 81.1753 233.173 84.5144 241.855C87.8534 250.536 91.1924 258.884 90.1907 275.245C89.189 291.606 85.1822 299.62 80.8414 307.633C76.8346 314.979 72.8278 322.659 71.4922 337.017C71.4922 338.352 71.1583 340.022 71.1583 341.357C70.1566 358.72 73.8295 367.402 77.1685 376.083C80.5075 384.764 83.8465 393.112 82.8448 409.473C81.8431 425.834 77.8363 433.848 73.4956 441.862C69.1549 450.209 64.8142 458.557 63.8125 475.919V494.952H209.727V475.919C209.059 467.572 207.724 461.228 206.054 455.885Z" fill="#3F0691"/>
</svg>
